<?xml version="1.0" encoding="iso-8859-1"?>
<!-- Uploaded to: SVG Repo, www.svgrepo.com, Generator: SVG Repo Mixer Tools -->
<svg fill="#000000" version="1.1" id="Layer_1" xmlns="http://www.w3.org/2000/svg" xmlns:xlink="http://www.w3.org/1999/xlink" 
	 viewBox="0 0 512 512" xml:space="preserve">
<g>
	<g>
		<rect x="281.6" y="290.133" width="25.6" height="17.067"/>
	</g>
</g>
<g>
	<g>
		<rect x="204.8" y="153.6" width="25.6" height="17.067"/>
	</g>
</g>
<g>
	<g>
		<rect x="281.6" y="221.867" width="25.6" height="17.067"/>
	</g>
</g>
<g>
	<g>
		<rect x="204.8" y="221.867" width="25.6" height="17.067"/>
	</g>
</g>
<g>
	<g>
		<rect x="281.6" y="358.4" width="25.6" height="17.067"/>
	</g>
</g>
<g>
	<g>
		<rect x="204.8" y="85.333" width="25.6" height="17.067"/>
	</g>
</g>
<g>
	<g>
		<rect x="204.8" y="358.4" width="25.6" height="17.067"/>
	</g>
</g>
<g>
	<g>
		<rect x="281.6" y="85.333" width="25.6" height="17.067"/>
	</g>
</g>
<g>
	<g>
		<rect x="204.8" y="290.133" width="25.6" height="17.067"/>
	</g>
</g>
<g>
	<g>
		<rect x="281.6" y="153.6" width="25.6" height="17.067"/>
	</g>
</g>
<g>
	<g>
		<rect x="426.667" y="238.933" width="25.6" height="17.067"/>
	</g>
</g>
<g>
	<g>
		<rect x="426.667" y="375.467" width="25.6" height="17.067"/>
	</g>
</g>
<g>
	<g>
		<rect x="426.667" y="307.2" width="25.6" height="17.067"/>
	</g>
</g>
<g>
	<g>
		<rect x="59.733" y="307.2" width="25.6" height="17.067"/>
	</g>
</g>
<g>
	<g>
		<rect x="59.733" y="238.933" width="25.6" height="17.067"/>
	</g>
</g>
<g>
	<g>
		<rect x="59.733" y="375.467" width="25.6" height="17.067"/>
	</g>
</g>
<g>
	<g>
		<rect x="59.733" y="170.667" width="25.6" height="17.067"/>
	</g>
</g>
<g>
	<g>
		<path d="M512,179.2v-34.133c0-5.12-3.413-8.533-8.533-8.533h-128c-5.12,0-8.533,3.413-8.533,8.533V179.2
			c0,5.12,3.413,8.533,8.533,8.533v256H358.4V51.2c5.12,0,8.533-3.413,8.533-8.533V8.533c0-5.12-3.413-8.533-8.533-8.533H153.6
			c-5.12,0-8.533,3.413-8.533,8.533v34.133c0,5.12,3.413,8.533,8.533,8.533v392.533h-17.067V119.467c5.12,0,8.533-3.413,8.533-8.533
			V76.8c0-5.12-3.413-8.533-8.533-8.533h-128C3.413,68.267,0,71.68,0,76.8v34.133c0,5.12,3.413,8.533,8.533,8.533v324.267
			c-5.12,0-8.533,3.413-8.533,8.533v51.2C0,508.587,3.413,512,8.533,512h494.933c5.12,0,8.533-3.413,8.533-8.533v-51.2
			c0-5.12-3.413-8.533-8.533-8.533v-256C508.587,187.733,512,184.32,512,179.2z M102.4,401.067c0,5.12-3.413,8.533-8.533,8.533H51.2
			c-5.12,0-8.533-3.413-8.533-8.533v-34.133c0-5.12,3.413-8.533,8.533-8.533h42.667c5.12,0,8.533,3.413,8.533,8.533V401.067z
			 M102.4,332.8c0,5.12-3.413,8.533-8.533,8.533H51.2c-5.12,0-8.533-3.413-8.533-8.533v-34.133c0-5.12,3.413-8.533,8.533-8.533
			h42.667c5.12,0,8.533,3.413,8.533,8.533V332.8z M102.4,264.533c0,5.12-3.413,8.533-8.533,8.533H51.2
			c-5.12,0-8.533-3.413-8.533-8.533V230.4c0-5.12,3.413-8.533,8.533-8.533h42.667c5.12,0,8.533,3.413,8.533,8.533V264.533z
			 M102.4,196.267c0,5.12-3.413,8.533-8.533,8.533H51.2c-5.12,0-8.533-3.413-8.533-8.533v-34.133c0-5.12,3.413-8.533,8.533-8.533
			h42.667c5.12,0,8.533,3.413,8.533,8.533V196.267z M128,102.4H17.067V85.333H128V102.4z M247.467,384
			c0,5.12-3.413,8.533-8.533,8.533h-42.667c-5.12,0-8.533-3.413-8.533-8.533v-34.133c0-5.12,3.413-8.533,8.533-8.533h42.667
			c5.12,0,8.533,3.413,8.533,8.533V384z M247.467,315.733c0,5.12-3.413,8.533-8.533,8.533h-42.667c-5.12,0-8.533-3.413-8.533-8.533
			V281.6c0-5.12,3.413-8.533,8.533-8.533h42.667c5.12,0,8.533,3.413,8.533,8.533V315.733z M247.467,247.467
			c0,5.12-3.413,8.533-8.533,8.533h-42.667c-5.12,0-8.533-3.413-8.533-8.533v-34.133c0-5.12,3.413-8.533,8.533-8.533h42.667
			c5.12,0,8.533,3.413,8.533,8.533V247.467z M247.467,179.2c0,5.12-3.413,8.533-8.533,8.533h-42.667
			c-5.12,0-8.533-3.413-8.533-8.533v-34.133c0-5.12,3.413-8.533,8.533-8.533h42.667c5.12,0,8.533,3.413,8.533,8.533V179.2z
			 M247.467,110.933c0,5.12-3.413,8.533-8.533,8.533h-42.667c-5.12,0-8.533-3.413-8.533-8.533V76.8c0-5.12,3.413-8.533,8.533-8.533
			h42.667c5.12,0,8.533,3.413,8.533,8.533V110.933z M324.267,384c0,5.12-3.413,8.533-8.533,8.533h-42.667
			c-5.12,0-8.533-3.413-8.533-8.533v-34.133c0-5.12,3.413-8.533,8.533-8.533h42.667c5.12,0,8.533,3.413,8.533,8.533V384z
			 M324.267,315.733c0,5.12-3.413,8.533-8.533,8.533h-42.667c-5.12,0-8.533-3.413-8.533-8.533V281.6c0-5.12,3.413-8.533,8.533-8.533
			h42.667c5.12,0,8.533,3.413,8.533,8.533V315.733z M324.267,247.467c0,5.12-3.413,8.533-8.533,8.533h-42.667
			c-5.12,0-8.533-3.413-8.533-8.533v-34.133c0-5.12,3.413-8.533,8.533-8.533h42.667c5.12,0,8.533,3.413,8.533,8.533V247.467z
			 M324.267,179.2c0,5.12-3.413,8.533-8.533,8.533h-42.667c-5.12,0-8.533-3.413-8.533-8.533v-34.133c0-5.12,3.413-8.533,8.533-8.533
			h42.667c5.12,0,8.533,3.413,8.533,8.533V179.2z M324.267,110.933c0,5.12-3.413,8.533-8.533,8.533h-42.667
			c-5.12,0-8.533-3.413-8.533-8.533V76.8c0-5.12,3.413-8.533,8.533-8.533h42.667c5.12,0,8.533,3.413,8.533,8.533V110.933z
			 M349.867,34.133H162.133V17.067h187.733V34.133z M469.333,401.067c0,5.12-3.413,8.533-8.533,8.533h-42.667
			c-5.12,0-8.533-3.413-8.533-8.533v-34.133c0-5.12,3.413-8.533,8.533-8.533H460.8c5.12,0,8.533,3.413,8.533,8.533V401.067z
			 M469.333,332.8c0,5.12-3.413,8.533-8.533,8.533h-42.667c-5.12,0-8.533-3.413-8.533-8.533v-34.133c0-5.12,3.413-8.533,8.533-8.533
			H460.8c5.12,0,8.533,3.413,8.533,8.533V332.8z M469.333,264.533c0,5.12-3.413,8.533-8.533,8.533h-42.667
			c-5.12,0-8.533-3.413-8.533-8.533V230.4c0-5.12,3.413-8.533,8.533-8.533H460.8c5.12,0,8.533,3.413,8.533,8.533V264.533z
			 M494.933,170.667H384V153.6h110.933V170.667z"/>
	</g>
</g>
</svg>